<svg width="63" height="62" viewBox="0 0 63 62" fill="none" xmlns="http://www.w3.org/2000/svg">
<g id="&#240;&#159;&#166;&#134; icon &#34;circle behance&#34;">
<path id="Vector" d="M41.7989 29.0247C42.7304 29.0247 43.4902 29.3189 44.0785 29.9072C44.3726 30.2013 44.6055 30.5199 44.7771 30.8631C44.9487 31.2063 45.059 31.8681 45.108 32.8485H38.4899C38.5879 31.8681 38.7227 31.2185 38.8943 30.8999C39.0659 30.5812 39.2743 30.2748 39.5194 29.9807C40.1076 29.3434 40.8675 29.0247 41.7989 29.0247ZM25.989 28.1423C25.6949 28.3384 25.364 28.5345 24.9963 28.7306C24.6287 28.9267 24.1997 29.0247 23.7095 29.0247H20.1798V23.2155H23.1947C23.734 23.2155 24.1997 23.2768 24.5919 23.3994C24.9841 23.5219 25.3517 23.6322 25.6949 23.7303C26.4302 24.1224 26.7979 24.8823 26.7979 26.0098C26.7979 27.0883 26.5283 27.7992 25.989 28.1423ZM25.9155 32.9956C26.3567 33.2407 26.6876 33.5226 26.9082 33.8412C27.1288 34.1599 27.2391 34.6134 27.2391 35.2016C27.2391 36.6723 26.7734 37.6528 25.842 38.143C25.3027 38.4371 24.5919 38.5842 23.7095 38.5842H20.1798V32.8485H23.783C24.2732 32.8485 24.6899 32.8363 25.0331 32.8118C25.3763 32.7873 25.6704 32.8485 25.9155 32.9956ZM31.7247 0.125732C35.9897 0.125732 39.9851 0.934611 43.7108 2.55237C47.4366 4.17012 50.6966 6.3639 53.4909 9.13369C56.2852 11.9035 58.4912 15.1635 60.109 18.9138C61.7267 22.664 62.5356 26.6716 62.5356 30.9366C62.5356 35.2016 61.7267 39.197 60.109 42.9227C58.4912 46.6485 56.2852 49.9085 53.4909 52.7028C50.6966 55.4971 47.4366 57.7031 43.7108 59.3209C39.9851 60.9387 35.9897 61.7475 31.7247 61.7475C27.4597 61.7475 23.4521 60.9387 19.7019 59.3209C15.9516 57.7031 12.6916 55.4971 9.92178 52.7028C7.15198 49.9085 4.95821 46.6485 3.34045 42.9227C1.7227 39.197 0.913818 35.2016 0.913818 30.9366C0.913818 26.6716 1.7227 22.664 3.34045 18.9138C4.95821 15.1635 7.15198 11.9035 9.92178 9.13369C12.6916 6.3639 15.9516 4.17012 19.7019 2.55237C23.4521 0.934611 27.4597 0.125732 31.7247 0.125732ZM30.7688 39.1725C31.4061 38.094 31.7247 36.8684 31.7247 35.4958C31.7247 34.2212 31.4551 33.0936 30.9158 32.1132C30.3276 31.1818 29.4942 30.4954 28.4157 30.0542C29.102 29.7111 29.6412 29.2699 30.0334 28.7306C30.7198 27.8972 31.0629 26.7697 31.0629 25.348C31.0629 23.9754 30.7198 22.7988 30.0334 21.8184C29.004 20.2006 27.1901 19.3917 24.5919 19.3917H14.3706V42.4815H23.9301C24.4693 42.4815 24.9841 42.457 25.4743 42.408C25.9645 42.359 26.4302 42.2854 26.8715 42.1874C27.7539 41.9913 28.5627 41.5991 29.2981 41.0108C29.9354 40.4226 30.4256 39.8098 30.7688 39.1725ZM37.4604 23.2155H45.1815V19.3917H37.4604V23.2155ZM49.0053 34.7604V33.4368L48.9685 32.4073L48.9318 31.5984C48.7357 30.3729 48.3435 29.2944 47.7552 28.3629C47.4121 27.7747 47.0321 27.2844 46.6154 26.8922C46.1987 26.5001 45.7453 26.1814 45.255 25.9363C44.1765 25.397 43.0245 25.1274 41.7989 25.1274C39.6909 25.1274 37.9506 25.8873 36.578 27.407C35.2544 28.8777 34.5926 31.0347 34.5926 33.878C34.5926 36.8684 35.3279 39.0499 36.7986 40.4226C38.2203 41.6972 39.9361 42.3345 41.946 42.3345C44.2991 42.3345 46.1129 41.5011 47.3875 39.8343C47.8288 39.3441 48.1597 38.8783 48.3803 38.4371C48.6009 37.9959 48.7602 37.4077 48.8582 36.6723H44.9609C44.8629 37.4077 44.7403 37.7876 44.5932 37.8121C44.4462 37.8366 44.2991 37.8979 44.152 37.9959C43.9069 38.2411 43.6005 38.4617 43.2329 38.6577C42.8652 38.8538 42.4607 38.9519 42.0195 38.9519C41.2352 38.9519 40.5488 38.7313 39.9606 38.2901C39.4703 37.9469 39.1027 37.518 38.8576 37.0032C38.6124 36.4885 38.4654 35.7409 38.4164 34.7604H49.0053Z" fill="#EDE7E7"/>
</g>
</svg>
