<svg width="60" height="60" viewBox="0 0 60 60" fill="none" xmlns="http://www.w3.org/2000/svg">
<path d="M39.8091 28.1384C40.716 28.1384 41.4558 28.4248 42.0286 28.9976C42.315 29.284 42.5418 29.5943 42.7088 29.9284C42.8759 30.2625 42.9833 30.9069 43.031 31.8616H36.5871C36.6826 30.9069 36.8138 30.2745 36.9809 29.9642C37.148 29.6539 37.3508 29.3556 37.5895 29.0692C38.1623 28.4487 38.9021 28.1384 39.8091 28.1384ZM24.4153 27.2792C24.1289 27.4702 23.8067 27.6611 23.4487 27.852C23.0907 28.043 22.673 28.1384 22.1957 28.1384H18.7589V22.4821H21.6945C22.2196 22.4821 22.673 22.5418 23.0549 22.6611C23.4368 22.7804 23.7947 22.8878 24.1289 22.9833C24.8449 23.3652 25.2029 24.105 25.2029 25.2029C25.2029 26.253 24.9403 26.9451 24.4153 27.2792ZM24.3437 32.0048C24.7733 32.2434 25.0955 32.5179 25.3103 32.8282C25.5251 33.1384 25.6325 33.58 25.6325 34.1527C25.6325 35.5847 25.179 36.5394 24.2721 37.0167C23.747 37.3031 23.0549 37.4463 22.1957 37.4463H18.7589V31.8616H22.2673C22.7446 31.8616 23.1504 31.8496 23.4845 31.8258C23.8186 31.8019 24.105 31.8616 24.3437 32.0048ZM30 0C34.1527 0 38.043 0.787589 41.6706 2.36277C45.2983 3.93795 48.4726 6.07399 51.1933 8.77088C53.9141 11.4678 56.0621 14.642 57.6372 18.2936C59.2124 21.9451 60 25.8473 60 30C60 34.1527 59.2124 38.043 57.6372 41.6706C56.0621 45.2983 53.9141 48.4726 51.1933 51.1933C48.4726 53.9141 45.2983 56.0621 41.6706 57.6372C38.043 59.2124 34.1527 60 30 60C25.8473 60 21.9451 59.2124 18.2936 57.6372C14.642 56.0621 11.4678 53.9141 8.77088 51.1933C6.07399 48.4726 3.93795 45.2983 2.36277 41.6706C0.787589 38.043 0 34.1527 0 30C0 25.8473 0.787589 21.9451 2.36277 18.2936C3.93795 14.642 6.07399 11.4678 8.77088 8.77088C11.4678 6.07399 14.642 3.93795 18.2936 2.36277C21.9451 0.787589 25.8473 0 30 0ZM29.0692 38.0191C29.6897 36.969 30 35.7757 30 34.4391C30 33.1981 29.7375 32.1002 29.2124 31.1456C28.6396 30.2387 27.8282 29.5704 26.778 29.1408C27.4463 28.8067 27.9714 28.3771 28.3532 27.852C29.0215 27.0406 29.3556 25.9427 29.3556 24.5585C29.3556 23.222 29.0215 22.0764 28.3532 21.1217C27.3508 19.5465 25.5847 18.7589 23.0549 18.7589H13.1026V41.241H22.4105C22.9356 41.241 23.4368 41.2172 23.9141 41.1695C24.3914 41.1217 24.8449 41.0501 25.2745 40.9547C26.1337 40.7637 26.9212 40.3819 27.6372 39.8091C28.2578 39.2363 28.7351 38.6396 29.0692 38.0191ZM35.5847 22.4821H43.1026V18.7589H35.5847V22.4821ZM46.8258 33.7231V32.4344L46.79 31.432L46.7542 30.6444C46.5632 29.4511 46.1814 28.401 45.6086 27.494C45.2745 26.9212 44.9045 26.4439 44.4988 26.0621C44.0931 25.6802 43.6516 25.3699 43.1742 25.1313C42.1241 24.6062 41.0024 24.3437 39.8091 24.3437C37.7566 24.3437 36.0621 25.0835 34.7255 26.5632C33.4368 27.9952 32.7924 30.0955 32.7924 32.864C32.7924 35.7757 33.5084 37.8998 34.9403 39.2363C36.3246 40.4773 37.9952 41.0979 39.9523 41.0979C42.2434 41.0979 44.0095 40.2864 45.2506 38.6635C45.6802 38.1862 46.0024 37.7327 46.2172 37.3031C46.432 36.8735 46.5871 36.3007 46.6826 35.5847H42.8878C42.7924 36.3007 42.673 36.6706 42.5298 36.6945C42.3866 36.7184 42.2434 36.778 42.1002 36.8735C41.8616 37.1122 41.5632 37.327 41.2052 37.5179C40.8473 37.7088 40.4535 37.8043 40.0239 37.8043C39.2601 37.8043 38.5919 37.5895 38.0191 37.1599C37.5418 36.8258 37.1838 36.4081 36.9451 35.9069C36.7064 35.4057 36.5632 34.6778 36.5155 33.7231H46.8258Z" fill="#52088C"/>
</svg>
