<svg width="50" height="50" viewBox="0 0 50 50" fill="none" xmlns="http://www.w3.org/2000/svg">
<g clip-path="url(#clip0_237_2)">
<path d="M0 21.0938C0 18.075 2.45 15.625 5.46875 15.625H10.1562C10.7779 15.625 11.374 15.8719 11.8135 16.3115C12.2531 16.751 12.5 17.3471 12.5 17.9688C12.5 18.5904 12.2531 19.1865 11.8135 19.626C11.374 20.0656 10.7779 20.3125 10.1562 20.3125H5.46875C5.26155 20.3125 5.06284 20.3948 4.91632 20.5413C4.76981 20.6878 4.6875 20.8865 4.6875 21.0938V44.5312C4.6875 44.9625 5.0375 45.3125 5.46875 45.3125H28.9062C29.1135 45.3125 29.3122 45.2302 29.4587 45.0837C29.6052 44.9372 29.6875 44.7385 29.6875 44.5312V39.8438C29.6875 39.2221 29.9344 38.626 30.374 38.1865C30.8135 37.7469 31.4096 37.5 32.0312 37.5C32.6529 37.5 33.249 37.7469 33.6885 38.1865C34.1281 38.626 34.375 39.2221 34.375 39.8438V44.5312C34.375 45.9817 33.7988 47.3727 32.7732 48.3982C31.7477 49.4238 30.3567 50 28.9062 50H5.46875C4.01835 50 2.62735 49.4238 1.60176 48.3982C0.57617 47.3727 0 45.9817 0 44.5312L0 21.0938Z" fill="#52088C"/>
<path d="M15.625 5.46875C15.625 2.45 18.075 0 21.0938 0H44.5312C47.55 0 50 2.45 50 5.46875V28.9062C50 30.3567 49.4238 31.7477 48.3982 32.7732C47.3727 33.7988 45.9817 34.375 44.5312 34.375H21.0938C19.6433 34.375 18.2523 33.7988 17.2268 32.7732C16.2012 31.7477 15.625 30.3567 15.625 28.9062V5.46875ZM21.0938 4.6875C20.8865 4.6875 20.6878 4.76981 20.5413 4.91632C20.3948 5.06284 20.3125 5.26155 20.3125 5.46875V28.9062C20.3125 29.3375 20.6625 29.6875 21.0938 29.6875H44.5312C44.7385 29.6875 44.9372 29.6052 45.0837 29.4587C45.2302 29.3122 45.3125 29.1135 45.3125 28.9062V5.46875C45.3125 5.26155 45.2302 5.06284 45.0837 4.91632C44.9372 4.76981 44.7385 4.6875 44.5312 4.6875H21.0938Z" fill="#52088C"/>
</g>
<defs>
<clipPath id="clip0_237_2">
<rect width="50" height="50" fill="white"/>
</clipPath>
</defs>
</svg>
