<svg width="39" height="28" viewBox="0 0 39 28" fill="none" xmlns="http://www.w3.org/2000/svg">
<path fill-rule="evenodd" clip-rule="evenodd" d="M2.8 0C2.05739 0 1.3452 0.294999 0.820101 0.820101C0.294999 1.3452 0 2.05739 0 2.8L0 25.2C0 26.7456 1.2544 28 2.8 28H35.6C36.3426 28 37.0548 27.705 37.5799 27.1799C38.105 26.6548 38.4 25.9426 38.4 25.2V2.8C38.4 2.05739 38.105 1.3452 37.5799 0.820101C37.0548 0.294999 36.3426 0 35.6 0H2.8ZM2.4 2.8C2.4 2.69391 2.44214 2.59217 2.51716 2.51716C2.59217 2.44214 2.69391 2.4 2.8 2.4H35.6C35.7061 2.4 35.8078 2.44214 35.8828 2.51716C35.9579 2.59217 36 2.69391 36 2.8V4.1632L19.424 15.3632C19.3579 15.4079 19.2798 15.4318 19.2 15.4318C19.1202 15.4318 19.0421 15.4079 18.976 15.3632L2.4 4.1632V2.8ZM2.4 7.0592V25.2C2.4 25.4208 2.5792 25.6 2.8 25.6H35.6C35.7061 25.6 35.8078 25.5579 35.8828 25.4828C35.9579 25.4078 36 25.3061 36 25.2V7.0592L20.768 17.352C19.8208 17.992 18.5792 17.992 17.632 17.352L2.4 7.0592Z" fill="#52088D"/>
</svg>
