<svg width="132" height="132" viewBox="0 0 132 132" fill="none" xmlns="http://www.w3.org/2000/svg">
<g id="&#240;&#159;&#166;&#134; icon &#34;file type git&#34;">
<g id="Vector">
<mask id="path-1-outside-1_55_482" maskUnits="userSpaceOnUse" x="0" y="0" width="132" height="132" fill="black">
<rect fill="white" width="132" height="132"/>
<path d="M119.892 60.4801L70.5486 11.1369C69.8736 10.4596 69.0716 9.92214 68.1884 9.55545C67.3053 9.18876 66.3585 9 65.4023 9C64.4461 9 63.4993 9.18876 62.6162 9.55545C61.7331 9.92214 60.9311 10.4596 60.2561 11.1369L50.008 21.3849L63.0048 34.3817C64.5374 33.8601 66.1857 33.7796 67.7618 34.1492C69.338 34.5188 70.7786 35.3237 71.9196 36.4722C73.0605 37.6208 73.8559 39.0667 74.2151 40.6453C74.5743 42.2238 74.4828 43.8715 73.9511 45.4007L86.4635 57.913C88.3338 57.2705 90.3678 57.2883 92.2266 57.9634C94.0854 58.6385 95.6567 59.9302 96.6788 61.6232C97.7008 63.3162 98.1119 65.3083 97.8434 67.2676C97.575 69.2269 96.6433 71.035 95.2035 72.3908C93.7638 73.7465 91.9029 74.5679 89.931 74.7182C87.9592 74.8685 85.9953 74.3385 84.3668 73.2166C82.7382 72.0947 81.5433 70.4486 80.981 68.5526C80.4188 66.6567 80.5232 64.6253 81.2769 62.7969L69.592 51.112V81.8561C71.362 82.7331 72.7782 84.1901 73.6046 85.9844C74.431 87.7786 74.6177 89.8019 74.1336 91.7171C73.6495 93.6323 72.5239 95.3238 70.9442 96.5099C69.3645 97.696 67.4261 98.3051 65.4519 98.2357C63.4777 98.1663 61.5868 97.4227 60.0943 96.1286C58.6018 94.8345 57.5977 93.0681 57.2493 91.1236C56.9009 89.1792 57.2291 87.174 58.1795 85.4422C59.1298 83.7104 60.6447 82.3564 62.472 81.6059V50.5792C61.4149 50.1454 60.454 49.5069 59.6448 48.7002C58.8355 47.8935 58.1939 46.9346 57.7568 45.8789C57.3197 44.8232 57.0958 43.6914 57.0981 42.5487C57.1003 41.4061 57.3286 40.2752 57.7698 39.2211L44.9748 26.4181L11.1389 60.2662C10.461 60.9412 9.92305 61.7435 9.556 62.627C9.18895 63.5105 9 64.4577 9 65.4144C9 66.3711 9.18895 67.3184 9.556 68.2019C9.92305 69.0854 10.461 69.8876 11.1389 70.5627L60.4821 119.89C61.1571 120.567 61.9591 121.104 62.8422 121.471C63.7253 121.838 64.6721 122.027 65.6284 122.027C66.5846 122.027 67.5314 121.838 68.4145 121.471C69.2976 121.104 70.0996 120.567 70.7746 119.89L119.892 70.7605C120.57 70.0854 121.108 69.2831 121.475 68.3997C121.842 67.5162 122.031 66.5689 122.031 65.6122C122.031 64.6555 121.842 63.7082 121.475 62.8248C121.108 61.9413 120.57 61.139 119.892 60.464"/>
</mask>
<path d="M119.892 60.4801L70.5486 11.1369C69.8736 10.4596 69.0716 9.92214 68.1884 9.55545C67.3053 9.18876 66.3585 9 65.4023 9C64.4461 9 63.4993 9.18876 62.6162 9.55545C61.7331 9.92214 60.9311 10.4596 60.2561 11.1369L50.008 21.3849L63.0048 34.3817C64.5374 33.8601 66.1857 33.7796 67.7618 34.1492C69.338 34.5188 70.7786 35.3237 71.9196 36.4722C73.0605 37.6208 73.8559 39.0667 74.2151 40.6453C74.5743 42.2238 74.4828 43.8715 73.9511 45.4007L86.4635 57.913C88.3338 57.2705 90.3678 57.2883 92.2266 57.9634C94.0854 58.6385 95.6567 59.9302 96.6788 61.6232C97.7008 63.3162 98.1119 65.3083 97.8434 67.2676C97.575 69.2269 96.6433 71.035 95.2035 72.3908C93.7638 73.7465 91.9029 74.5679 89.931 74.7182C87.9592 74.8685 85.9953 74.3385 84.3668 73.2166C82.7382 72.0947 81.5433 70.4486 80.981 68.5526C80.4188 66.6567 80.5232 64.6253 81.2769 62.7969L69.592 51.112V81.8561C71.362 82.7331 72.7782 84.1901 73.6046 85.9844C74.431 87.7786 74.6177 89.8019 74.1336 91.7171C73.6495 93.6323 72.5239 95.3238 70.9442 96.5099C69.3645 97.696 67.4261 98.3051 65.4519 98.2357C63.4777 98.1663 61.5868 97.4227 60.0943 96.1286C58.6018 94.8345 57.5977 93.0681 57.2493 91.1236C56.9009 89.1792 57.2291 87.174 58.1795 85.4422C59.1298 83.7104 60.6447 82.3564 62.472 81.6059V50.5792C61.4149 50.1454 60.454 49.5069 59.6448 48.7002C58.8355 47.8935 58.1939 46.9346 57.7568 45.8789C57.3197 44.8232 57.0958 43.6914 57.0981 42.5487C57.1003 41.4061 57.3286 40.2752 57.7698 39.2211L44.9748 26.4181L11.1389 60.2662C10.461 60.9412 9.92305 61.7435 9.556 62.627C9.18895 63.5105 9 64.4577 9 65.4144C9 66.3711 9.18895 67.3184 9.556 68.2019C9.92305 69.0854 10.461 69.8876 11.1389 70.5627L60.4821 119.89C61.1571 120.567 61.9591 121.104 62.8422 121.471C63.7253 121.838 64.6721 122.027 65.6284 122.027C66.5846 122.027 67.5314 121.838 68.4145 121.471C69.2976 121.104 70.0996 120.567 70.7746 119.89L119.892 70.7605C120.57 70.0854 121.108 69.2831 121.475 68.3997C121.842 67.5162 122.031 66.5689 122.031 65.6122C122.031 64.6555 121.842 63.7082 121.475 62.8248C121.108 61.9413 120.57 61.139 119.892 60.464" fill="#DD4C35"/>
<path d="M70.5486 11.1369L64.1736 17.4898L64.1791 17.4953L64.1846 17.5008L70.5486 11.1369ZM65.4023 9V0V9ZM60.2561 11.1369L66.6201 17.5008L66.6256 17.4953L66.6311 17.4898L60.2561 11.1369ZM50.008 21.3849L43.6441 15.021L37.2801 21.3849L43.6441 27.7489L50.008 21.3849ZM63.0048 34.3817L56.6408 40.7456L60.6016 44.7064L65.9043 42.9018L63.0048 34.3817ZM73.9511 45.4007L65.4503 42.4449L63.5971 47.7746L67.5872 51.7646L73.9511 45.4007ZM86.4635 57.913L80.0996 64.277L84.0731 68.2505L89.3876 66.4248L86.4635 57.913ZM81.2769 62.7969L89.5977 66.227L91.8854 60.6774L87.6409 56.433L81.2769 62.7969ZM69.592 51.112L75.9559 44.748L60.592 29.384V51.112H69.592ZM69.592 81.8561H60.592V87.4411L65.5963 89.9205L69.592 81.8561ZM62.472 81.6059L65.8916 89.9309L71.472 87.6387V81.6059H62.472ZM62.472 50.5792H71.472V44.5437L65.8882 42.2527L62.472 50.5792ZM57.7698 39.2211L66.0718 42.6962L68.4023 37.1285L64.1357 32.8592L57.7698 39.2211ZM44.9748 26.4181L51.3408 20.0562L44.9757 13.6871L38.6097 20.0553L44.9748 26.4181ZM11.1389 60.2662L17.4893 66.6437L17.4967 66.6364L17.504 66.629L11.1389 60.2662ZM9 65.4144H0H9ZM11.1389 70.5627L17.5018 64.1977L17.4956 64.1914L17.4893 64.1852L11.1389 70.5627ZM60.4821 119.89L66.8571 113.537L66.8511 113.531L66.8451 113.525L60.4821 119.89ZM70.7746 119.89L64.4098 113.527L64.4047 113.532L64.3996 113.537L70.7746 119.89ZM119.892 70.7605L113.541 64.383L113.534 64.3901L113.527 64.3973L119.892 70.7605ZM126.256 54.1161L76.9125 4.77291L64.1846 17.5008L113.528 66.8441L126.256 54.1161ZM76.9236 4.78397C75.4125 3.26762 73.6169 2.06447 71.6398 1.24353L64.7371 17.8674C64.5262 17.7798 64.3347 17.6515 64.1736 17.4898L76.9236 4.78397ZM71.6398 1.24353C69.6627 0.422586 67.5431 0 65.4023 0V18C65.174 18 64.9479 17.9549 64.7371 17.8674L71.6398 1.24353ZM65.4023 0C63.2616 0 61.1419 0.422586 59.1648 1.24353L66.0676 17.8674C65.8567 17.9549 65.6306 18 65.4023 18V0ZM59.1648 1.24353C57.1878 2.06447 55.3922 3.26761 53.8811 4.78397L66.6311 17.4898C66.4699 17.6515 66.2784 17.7798 66.0676 17.8674L59.1648 1.24353ZM53.8921 4.77291L43.6441 15.021L56.372 27.7489L66.6201 17.5008L53.8921 4.77291ZM43.6441 27.7489L56.6408 40.7456L69.3688 28.0177L56.372 15.021L43.6441 27.7489ZM65.9043 42.9018C65.8407 42.9235 65.7724 42.9268 65.707 42.9115L69.8166 25.3869C66.599 24.6323 63.2341 24.7968 60.1053 25.8615L65.9043 42.9018ZM65.707 42.9115C65.6417 42.8961 65.5819 42.8628 65.5346 42.8151L78.3045 30.1294C75.9753 27.7847 73.0343 26.1414 69.8166 25.3869L65.707 42.9115ZM65.5346 42.8151C65.4873 42.7675 65.4543 42.7075 65.4394 42.6421L82.9908 38.6485C82.2575 35.4259 80.6338 32.4741 78.3045 30.1294L65.5346 42.8151ZM65.4394 42.6421C65.4245 42.5766 65.4283 42.5083 65.4503 42.4449L82.4519 48.3565C83.5373 45.2348 83.724 41.8711 82.9908 38.6485L65.4394 42.6421ZM67.5872 51.7646L80.0996 64.277L92.8275 51.5491L80.3151 39.0367L67.5872 51.7646ZM89.3876 66.4248C89.3119 66.4508 89.2295 66.4501 89.1542 66.4227L95.299 49.5041C91.5062 48.1265 87.3558 48.0903 83.5394 49.4013L89.3876 66.4248ZM89.1542 66.4227C89.0789 66.3954 89.0153 66.3431 88.9739 66.2745L104.384 56.9719C102.298 53.5173 99.0919 50.8816 95.299 49.5041L89.1542 66.4227ZM88.9739 66.2745C88.9325 66.206 88.9159 66.1253 88.9267 66.0459L106.76 68.4893C107.308 64.4914 106.469 60.4265 104.384 56.9719L88.9739 66.2745ZM88.9267 66.0459C88.9376 65.9666 88.9753 65.8934 89.0336 65.8385L101.373 78.9431C104.311 76.1767 106.212 72.4872 106.76 68.4893L88.9267 66.0459ZM89.0336 65.8385C89.0919 65.7836 89.1673 65.7503 89.2472 65.7442L90.6149 83.6922C94.6385 83.3855 98.4356 81.7094 101.373 78.9431L89.0336 65.8385ZM89.2472 65.7442C89.327 65.7381 89.4066 65.7596 89.4725 65.805L79.261 80.6282C82.5841 82.9174 86.5913 83.9988 90.6149 83.6922L89.2472 65.7442ZM89.4725 65.805C89.5385 65.8504 89.5869 65.9171 89.6096 65.9939L72.3524 71.1114C73.4997 74.9801 75.938 78.3389 79.261 80.6282L89.4725 65.805ZM89.6096 65.9939C89.6324 66.0707 89.6282 66.1529 89.5977 66.227L72.9562 59.3668C71.4183 63.0976 71.2052 67.2426 72.3524 71.1114L89.6096 65.9939ZM87.6409 56.433L75.9559 44.748L63.228 57.4759L74.913 69.1609L87.6409 56.433ZM60.592 51.112V81.8561H78.592V51.112H60.592ZM65.5963 89.9205C65.5229 89.8842 65.4642 89.8237 65.4299 89.7493L81.7792 82.2194C80.0922 78.5565 77.2012 75.5821 73.5876 73.7917L65.5963 89.9205ZM65.4299 89.7493C65.3957 89.6749 65.3879 89.591 65.408 89.5116L82.8592 93.9225C83.8474 90.0127 83.4662 85.8823 81.7792 82.2194L65.4299 89.7493ZM65.408 89.5116C65.4281 89.4322 65.4748 89.362 65.5403 89.3128L76.3481 103.707C79.573 101.286 81.8709 97.8324 82.8592 93.9225L65.408 89.5116ZM65.5403 89.3128C65.6058 89.2636 65.6861 89.2384 65.768 89.2413L65.1358 107.23C69.166 107.372 73.1232 106.128 76.3481 103.707L65.5403 89.3128ZM65.768 89.2413C65.8499 89.2441 65.9283 89.275 65.9902 89.3287L54.1985 102.928C57.2454 105.57 61.1055 107.089 65.1358 107.23L65.768 89.2413ZM65.9902 89.3287C66.0521 89.3823 66.0937 89.4556 66.1082 89.5362L48.3904 92.711C49.1017 96.6806 51.1515 100.287 54.1985 102.928L65.9902 89.3287ZM66.1082 89.5362C66.1226 89.6168 66.109 89.7 66.0696 89.7718L50.2893 81.1126C48.3493 84.6481 47.6791 88.7415 48.3904 92.711L66.1082 89.5362ZM66.0696 89.7718C66.0302 89.8437 65.9674 89.8998 65.8916 89.9309L59.0524 73.2808C55.3221 74.8131 52.2293 77.5771 50.2893 81.1126L66.0696 89.7718ZM71.472 81.6059V50.5792H53.472V81.6059H71.472ZM65.8882 42.2527C65.9295 42.2697 65.967 42.2946 65.9986 42.3261L53.2909 55.0742C54.941 56.7191 56.9003 58.0212 59.0558 58.9056L65.8882 42.2527ZM65.9986 42.3261C66.0302 42.3576 66.0553 42.395 66.0723 42.4363L49.4412 49.3215C50.3325 51.4743 51.6408 53.4294 53.2909 55.0742L65.9986 42.3261ZM66.0723 42.4363C66.0894 42.4775 66.0981 42.5217 66.098 42.5663L48.0981 42.5312C48.0935 44.8611 48.55 47.1688 49.4412 49.3215L66.0723 42.4363ZM66.098 42.5663C66.098 42.6109 66.089 42.6551 66.0718 42.6962L49.4677 35.7461C48.5681 37.8953 48.1026 40.2013 48.0981 42.5312L66.098 42.5663ZM64.1357 32.8592L51.3408 20.0562L38.6089 32.7801L51.4038 45.5831L64.1357 32.8592ZM38.6097 20.0553L4.7738 53.9034L17.504 66.629L51.3399 32.781L38.6097 20.0553ZM4.78851 53.8887C3.27079 55.4 2.0665 57.1961 1.24476 59.174L17.8672 66.08C17.7796 66.2909 17.6512 66.4825 17.4893 66.6437L4.78851 53.8887ZM1.24476 59.174C0.423014 61.1519 0 63.2726 0 65.4144H18C18 65.6429 17.9549 65.869 17.8672 66.08L1.24476 59.174ZM0 65.4144C0 67.5562 0.423012 69.677 1.24476 71.6549L17.8672 64.7489C17.9549 64.9598 18 65.186 18 65.4144H0ZM1.24476 71.6549C2.06651 73.6328 3.27081 75.4289 4.78851 76.9402L17.4893 64.1852C17.6511 64.3463 17.7796 64.5379 17.8672 64.7489L1.24476 71.6549ZM4.77598 76.9277L54.1192 126.255L66.8451 113.525L17.5018 64.1977L4.77598 76.9277ZM54.1071 126.243C55.6182 127.759 57.4138 128.962 59.3909 129.783L66.2936 113.159C66.5045 113.247 66.696 113.375 66.8571 113.537L54.1071 126.243ZM59.3909 129.783C61.3679 130.604 63.4876 131.027 65.6284 131.027V113.027C65.8567 113.027 66.0827 113.072 66.2936 113.159L59.3909 129.783ZM65.6284 131.027C67.7691 131.027 69.8888 130.604 71.8658 129.783L64.9631 113.159C65.174 113.072 65.4 113.027 65.6284 113.027V131.027ZM71.8658 129.783C73.8429 128.962 75.6385 127.759 77.1496 126.243L64.3996 113.537C64.5608 113.375 64.7523 113.247 64.9631 113.159L71.8658 129.783ZM77.1393 126.253L126.257 77.1236L113.527 64.3973L64.4098 113.527L77.1393 126.253ZM126.242 77.138C127.76 75.6267 128.964 73.8306 129.786 71.8527L113.163 64.9466C113.251 64.7357 113.38 64.5441 113.541 64.383L126.242 77.138ZM129.786 71.8527C130.608 69.8747 131.031 67.754 131.031 65.6122H113.031C113.031 65.3838 113.076 65.1576 113.163 64.9466L129.786 71.8527ZM131.031 65.6122C131.031 63.4704 130.608 61.3497 129.786 59.3718L113.163 66.2778C113.076 66.0668 113.031 65.8406 113.031 65.6122H131.031ZM129.786 59.3718C128.964 57.3938 127.76 55.5977 126.242 54.0865L113.541 66.8415C113.38 66.6803 113.251 66.4887 113.163 66.2778L129.786 59.3718Z" fill="#EDE7E7" mask="url(#path-1-outside-1_55_482)"/>
</g>
<path id="Vector_2" d="M50.0083 21.3849L63.0051 34.3817C64.5377 33.8601 66.1859 33.7795 67.7621 34.1492C69.3382 34.5188 70.7789 35.3237 71.9198 36.4722C73.0608 37.6208 73.8562 39.0667 74.2154 40.6452C74.5745 42.2238 74.4831 43.8715 73.9514 45.4006L86.4638 57.913C88.3341 57.2705 90.3681 57.2883 92.2269 57.9634C94.0857 58.6385 95.657 59.9302 96.679 61.6232C97.7011 63.3162 98.1121 65.3083 97.8437 67.2676C97.5753 69.2269 96.6435 71.035 95.2038 72.3907C93.764 73.7465 91.9032 74.5679 89.9313 74.7182C87.9594 74.8684 85.9956 74.3385 84.3671 73.2166C82.7385 72.0947 81.5435 70.4486 80.9813 68.5526C80.4191 66.6566 80.5235 64.6252 81.2772 62.7969L69.5922 51.1119V81.8561C71.3623 82.7331 72.7785 84.1901 73.6048 85.9844C74.4312 87.7786 74.6179 89.8019 74.1338 91.7171C73.6498 93.6322 72.5241 95.3238 70.9444 96.5099C69.3647 97.696 67.4264 98.3051 65.4522 98.2357C63.4779 98.1663 61.5871 97.4226 60.0946 96.1285C58.6021 94.8345 57.598 93.0681 57.2495 91.1236C56.9011 89.1792 57.2294 87.174 58.1797 85.4422C59.13 83.7104 60.645 82.3564 62.4723 81.6059V50.5792C61.4151 50.1454 60.4543 49.5068 59.645 48.7002C58.8358 47.8935 58.1941 46.9346 57.757 45.8789C57.32 44.8231 57.0961 43.6914 57.0983 42.5487C57.1006 41.4061 57.3288 40.2752 57.77 39.2211L44.9751 26.4181" fill="#EDE7E7"/>
</g>
</svg>
