<svg width="63" height="62" viewBox="0 0 63 62" fill="none" xmlns="http://www.w3.org/2000/svg">
<g id="&#240;&#159;&#166;&#134; icon &#34;mark github&#34;">
<path id="Vector" fill-rule="evenodd" clip-rule="evenodd" d="M31.4811 0.125732C14.4581 0.125732 0.670166 14.2624 0.670166 31.716C0.670166 45.6947 9.48979 57.5015 21.7371 61.6872C23.2777 61.9636 23.8554 61.0159 23.8554 60.1867C23.8554 59.4364 23.8169 56.9487 23.8169 54.303C16.0756 55.7641 14.0729 52.3681 13.4567 50.5912C13.1101 49.6829 11.608 46.8793 10.2986 46.129C9.2202 45.5367 7.67965 44.0757 10.2601 44.0362C12.6864 43.9967 14.4195 46.3265 14.9972 47.2742C17.7702 52.0522 22.1993 50.7096 23.9709 49.8804C24.2405 47.827 25.0493 46.4449 25.9351 45.6552C19.0797 44.8654 11.9162 42.1408 11.9162 30.0575C11.9162 26.6221 13.1101 23.7789 15.0743 21.5676C14.7662 20.7779 13.6878 17.5399 15.3824 13.1962C15.3824 13.1962 17.9628 12.367 23.8554 16.4342C26.3203 15.7234 28.9392 15.368 31.5581 15.368C34.177 15.368 36.796 15.7234 39.2608 16.4342C45.1534 12.3275 47.7339 13.1962 47.7339 13.1962C49.4285 17.5399 48.3501 20.7779 48.042 21.5676C50.0062 23.7789 51.2001 26.5826 51.2001 30.0575C51.2001 42.1802 43.998 44.8654 37.1426 45.6552C38.2595 46.6424 39.2223 48.5378 39.2223 51.4994C39.2223 55.7246 39.1838 59.1205 39.1838 60.1867C39.1838 61.0159 39.7615 62.0031 41.3021 61.6872C47.4186 59.5701 52.7336 55.5397 56.4989 50.1632C60.2643 44.7867 62.2904 38.3349 62.292 31.716C62.292 14.2624 48.5041 0.125732 31.4811 0.125732Z" fill="#EDE7E7"/>
</g>
</svg>
