<svg width="62" height="62" viewBox="0 0 62 62" fill="none" xmlns="http://www.w3.org/2000/svg">
<g id="&#240;&#159;&#166;&#134; icon &#34;circle linkedin&#34;">
<path id="Vector" d="M31.0661 0.125732C35.3362 0.125732 39.3363 0.935577 43.0665 2.55527C46.7967 4.17496 50.0606 6.37135 52.8583 9.14446C55.6559 11.9176 57.8646 15.1692 59.4843 18.8994C61.104 22.6296 61.9138 26.6297 61.9138 30.8998C61.9138 35.1699 61.104 39.1701 59.4843 42.9002C57.8646 46.6304 55.6559 49.8944 52.8583 52.692C50.0606 55.4897 46.7967 57.6983 43.0665 59.318C39.3363 60.9377 35.3362 61.7475 31.0661 61.7475C26.796 61.7475 22.7959 60.9377 19.0657 59.318C15.3355 57.6983 12.0838 55.4897 9.31072 52.692C6.53761 49.8944 4.34122 46.6304 2.72153 42.9002C1.10184 39.1701 0.291992 35.1699 0.291992 30.8998C0.291992 26.6297 1.10184 22.6296 2.72153 18.8994C4.34122 15.1692 6.53761 11.9176 9.31072 9.14446C12.0838 6.37135 15.3355 4.17496 19.0657 2.55527C22.7959 0.935577 26.796 0.125732 31.0661 0.125732ZM21.4952 23.2431H13.7649V48.2747H21.4952V23.2431ZM17.5932 21.2553C18.673 21.2553 19.5933 20.8872 20.3541 20.151C21.1148 19.4148 21.4952 18.5068 21.4952 17.427C21.4952 16.3472 21.1148 15.4392 20.3541 14.7029C19.5933 13.9667 18.673 13.5986 17.5932 13.5986C16.5134 13.5986 15.6054 13.9667 14.8692 14.7029C14.133 15.4392 13.7649 16.3472 13.7649 17.427C13.7649 18.5068 14.133 19.4148 14.8692 20.151C15.6054 20.8872 16.5134 21.2553 17.5932 21.2553ZM48.4409 33.7711C48.4409 32.0042 47.9501 30.274 46.9685 28.5807C45.9869 26.8874 44.7107 25.599 43.1401 24.7156C41.7168 23.9303 40.0603 23.5131 38.1706 23.464C36.281 23.4149 34.5509 23.7339 32.9803 24.4211V23.2431H25.3236V48.2747H32.9803V32.9613L36.2196 31.4152C36.6123 31.2189 37.1399 31.1207 37.8025 31.1207C38.4651 31.1207 38.9927 31.2434 39.3854 31.4888C39.6799 31.636 39.9744 31.9551 40.2689 32.4459C40.5634 32.9367 40.7106 33.3784 40.7106 33.7711V48.2747H48.4409V33.7711Z" fill="#EDE7E7"/>
</g>
</svg>
