<svg width="237" height="249" viewBox="0 0 237 249" fill="none" xmlns="http://www.w3.org/2000/svg">
<g filter="url(#filter0_f_55_436)">
<path d="M22.4779 141.666C13.7482 137.958 9.67694 127.876 13.3845 119.146C17.092 110.416 27.1744 106.345 35.9041 110.052L83.3596 130.207C100.439 137.461 120.166 129.495 127.42 112.416C134.674 95.3357 126.708 75.6093 109.628 68.3554L63.5473 48.7846C54.0585 44.7547 49.6332 33.7955 53.6631 24.3067C57.693 14.8179 68.6522 10.3926 78.141 14.4226L296.022 106.958C305.463 110.967 309.866 121.871 305.856 131.312C301.818 140.82 290.797 145.206 281.33 141.072L278.563 139.864C267.573 135.065 254.779 140.156 250.09 151.195L240.849 172.954C236.133 184.057 241.239 196.888 252.295 201.716L256.596 203.594C265.269 207.381 269.275 217.447 265.575 226.158C261.849 234.932 251.715 239.024 242.942 235.297L22.4779 141.666Z" fill="url(#paint0_linear_55_436)"/>
</g>
<defs>
<filter id="filter0_f_55_436" x="0.0136719" y="0.932465" width="319.325" height="247.743" filterUnits="userSpaceOnUse" color-interpolation-filters="sRGB">
<feFlood flood-opacity="0" result="BackgroundImageFix"/>
<feBlend mode="normal" in="SourceGraphic" in2="BackgroundImageFix" result="shape"/>
<feGaussianBlur stdDeviation="6" result="effect1_foregroundBlur_55_436"/>
</filter>
<linearGradient id="paint0_linear_55_436" x1="62.908" y1="64.2828" x2="315.065" y2="171.375" gradientUnits="userSpaceOnUse">
<stop offset="0.411458" stop-color="#F8B10A"/>
<stop offset="1" stop-color="#F8B10A" stop-opacity="0"/>
</linearGradient>
</defs>
</svg>
