<svg width="320" height="249" viewBox="0 0 320 249" fill="none" xmlns="http://www.w3.org/2000/svg">
<g filter="url(#filter0_f_264_3)">
<path d="M22.8066 141.54C14.0769 137.832 10.0056 127.75 13.7131 119.02V119.02C17.4206 110.29 27.503 106.219 36.2327 109.927L83.6882 130.081C100.768 137.335 120.495 129.37 127.748 112.29V112.29C135.002 95.21 127.037 75.4836 109.957 68.2297L63.8759 48.6589C54.3871 44.6289 49.9618 33.6698 53.9917 24.181V24.181C58.0217 14.6922 68.9808 10.2669 78.4696 14.2968L296.351 106.832C305.792 110.842 310.195 121.745 306.185 131.186V131.186C302.147 140.695 291.126 145.08 281.659 140.946L278.892 139.738C267.902 134.939 255.107 140.03 250.419 151.069L241.178 172.828C236.462 183.932 241.568 196.762 252.623 201.59L256.924 203.468C265.598 207.255 269.603 217.321 265.903 226.032V226.032C262.177 234.806 252.044 238.898 243.27 235.172L22.8066 141.54Z" fill="url(#paint0_linear_264_3)"/>
</g>
<defs>
<filter id="filter0_f_264_3" x="0.342285" y="0.806763" width="319.325" height="247.743" filterUnits="userSpaceOnUse" color-interpolation-filters="sRGB">
<feFlood flood-opacity="0" result="BackgroundImageFix"/>
<feBlend mode="normal" in="SourceGraphic" in2="BackgroundImageFix" result="shape"/>
<feGaussianBlur stdDeviation="6" result="effect1_foregroundBlur_264_3"/>
</filter>
<linearGradient id="paint0_linear_264_3" x1="63.2366" y1="64.157" x2="315.393" y2="171.249" gradientUnits="userSpaceOnUse">
<stop offset="0.411458" stop-color="#F8B10A"/>
<stop offset="1" stop-color="#F8B10A" stop-opacity="0"/>
</linearGradient>
</defs>
</svg>
