<svg width="110" height="119" viewBox="0 0 110 119" fill="none" xmlns="http://www.w3.org/2000/svg">
<g id="&#240;&#159;&#166;&#134; icon &#34;file type css&#34;">
<path id="Vector" d="M13.6974 99.9964L13.9804 103.11L16.9969 103.931L53.717 113.928L54.8983 114.249L56.0797 113.928L92.8981 103.917L95.9155 103.097L96.1989 99.9827L104.389 9.99345L104.836 5.08557H99.9078H9.99951H5.07201L5.51798 9.99285L13.6974 99.9964Z" fill="#1572B6" stroke="#EDE7E7" stroke-width="9"/>
<path id="Vector_2" d="M54.9585 101.936L84.7118 93.8463L91.7113 16.9463H54.9585V101.936Z" fill="#33A9DC"/>
<path id="Vector_3" d="M54.9583 49.5535H69.8531L70.8801 38.2499H54.9583V27.2106H54.9983H83.182L82.9126 30.1713L80.1484 60.5928H54.9583V49.5535Z" fill="#EDE7E7"/>
<path id="Vector_4" d="M55.0226 78.2213L54.9716 78.2356L42.4366 74.9142L41.6354 66.1106H35.5427H30.335L31.9119 83.4428L54.968 89.7213L55.0226 89.7071V78.2213Z" fill="#EBEBEB"/>
<path id="Vector_5" d="M68.8953 60.1248L67.5405 74.907L54.9873 78.2284V89.7141L78.0616 83.4427L78.2328 81.5784L80.1884 60.1248H68.8953Z" fill="#EDE7E7"/>
<g id="Group">
<path id="Vector_6" d="M54.993 27.2106V34.0678V38.2213V38.2499H27.8399H27.8035L27.5777 35.7678L27.0642 30.1713L26.7947 27.2106H54.993Z" fill="#EBEBEB"/>
<path id="Vector_7" d="M54.9531 49.5535V56.4107V60.5642V60.5928H42.6111H42.5747L42.3489 58.1107L41.8391 52.5142L41.5696 49.5535H54.9531Z" fill="#EBEBEB"/>
</g>
</g>
</svg>
