<svg width="60" height="60" viewBox="0 0 60 60" fill="none" xmlns="http://www.w3.org/2000/svg">
<path d="M49.6875 9.375H10.3125C8.57259 9.37686 6.90447 10.0689 5.67417 11.2992C4.44386 12.5295 3.75186 14.1976 3.75 15.9375V44.0625C3.75186 45.8024 4.44386 47.4705 5.67417 48.7008C6.90447 49.9311 8.57259 50.6231 10.3125 50.625H49.6875C51.4274 50.6231 53.0955 49.9311 54.3258 48.7008C55.5561 47.4705 56.2481 45.8024 56.25 44.0625V15.9375C56.2481 14.1976 55.5561 12.5295 54.3258 11.2992C53.0955 10.0689 51.4274 9.37686 49.6875 9.375ZM48.0258 20.2301L31.1508 33.3551C30.8217 33.6109 30.4168 33.7498 30 33.7498C29.5832 33.7498 29.1783 33.6109 28.8492 33.3551L11.9742 20.2301C11.776 20.0804 11.6094 19.8927 11.4843 19.6781C11.3592 19.4634 11.278 19.2261 11.2454 18.9798C11.2128 18.7335 11.2295 18.4831 11.2945 18.2433C11.3594 18.0035 11.4714 17.779 11.6239 17.5829C11.7764 17.3868 11.9664 17.2229 12.1828 17.1008C12.3992 16.9787 12.6377 16.9008 12.8844 16.8717C13.1311 16.8426 13.3812 16.8628 13.6201 16.9312C13.8589 16.9995 14.0818 17.1147 14.2758 17.2699L30 29.4996L45.7242 17.2699C46.1174 16.973 46.6117 16.8428 47.1001 16.9074C47.5886 16.972 48.032 17.2263 48.3344 17.6153C48.6368 18.0043 48.774 18.4967 48.7162 18.986C48.6585 19.4753 48.4105 19.9222 48.0258 20.2301Z" fill="#52088C"/>
</svg>
