<svg width="109" height="119" viewBox="0 0 109 119" fill="none" xmlns="http://www.w3.org/2000/svg">
<g id="&#240;&#159;&#166;&#134; icon &#34;file type html&#34;">
<path id="Vector" d="M13.5428 99.4032L13.8195 102.506L16.8213 103.34L52.832 113.336L54.035 113.67L55.238 113.336L91.3451 103.326L94.3479 102.493L94.625 99.3895L102.661 9.40024L103.098 4.5H98.1786H10H5.08091L5.51778 9.39965L13.5428 99.4032Z" fill="#E44F26" stroke="#EDE7E7" stroke-width="9"/>
<path id="Vector_2" d="M54.0903 101.35L83.2689 93.2607L90.1332 16.3607H54.0903V101.35Z" fill="#F1662A"/>
<path id="Vector_3" d="M54.0902 49.7393H39.483L38.4759 38.4357H54.0902V27.3964H54.0509H26.4116L26.6759 30.3607L29.3866 60.7786H54.0902V49.7393Z" fill="#EBEBEB"/>
<path id="Vector_4" d="M54.0886 78.4072L54.0386 78.4214L41.7458 75.1036L40.9601 66.3H34.9851H29.8779L31.4244 83.6286L54.0386 89.9072L54.0886 89.8929V78.4072Z" fill="#EBEBEB"/>
<g id="Group">
<path id="Vector_5" d="M54.0503 49.7392V60.7785H67.6431L66.3646 75.0964L54.0503 78.4178V89.9035L76.6824 83.6285L76.8467 81.7642L79.4396 52.7035L79.711 49.7392H76.736H54.0503Z" fill="#EDE7E7"/>
<path id="Vector_6" d="M54.0498 27.3964V34.2536V38.4107V38.4357H80.6784H80.7141L80.9355 35.9572L81.4391 30.3607L81.7034 27.3964H54.0498Z" fill="#EDE7E7"/>
</g>
</g>
</svg>
