<svg width="110" height="110" viewBox="0 0 110 110" fill="none" xmlns="http://www.w3.org/2000/svg">
<g id="&#240;&#159;&#166;&#134; icon &#34;file type js official&#34;">
<path id="Vector" d="M5 5H105V105H5V5Z" fill="#F5DE19" stroke="#EDE7E7" stroke-width="9"/>
<path id="Vector_2" d="M72.175 83.125C73.0271 84.8557 74.3508 86.3104 75.9937 87.3215C77.6366 88.3325 79.5318 88.8586 81.4608 88.8393C85.3536 88.8393 87.8429 86.8929 87.8429 84.1965C87.8429 80.9822 85.2858 79.8322 81 77.9572L78.65 76.95C71.8643 74.0608 67.3643 70.4429 67.3643 62.7929C67.3643 55.7465 72.7215 50.3786 81.125 50.3786C83.8454 50.1822 86.5634 50.791 88.94 52.1292C91.3166 53.4674 93.2466 55.4757 94.4893 57.9036L87.1429 62.6C86.6644 61.3962 85.8312 60.3662 84.7539 59.6467C83.6766 58.9273 82.4061 58.5523 81.1108 58.5715C80.5456 58.5149 79.9749 58.5767 79.4349 58.7528C78.895 58.929 78.3977 59.2157 77.9746 59.5947C77.5516 59.9737 77.2122 60.4367 76.978 60.9541C76.7438 61.4716 76.6199 62.0321 76.6143 62.6C76.6143 65.4179 78.3608 66.5608 82.3929 68.3143L84.7429 69.3215C92.7286 72.7465 97.2429 76.2358 97.2429 84.0822C97.2429 92.5429 90.5965 97.1786 81.6715 97.1786C78.194 97.4002 74.7267 96.6107 71.688 94.9053C68.6492 93.1999 66.169 90.6516 64.5465 87.5679L72.175 83.125ZM38.9786 83.9393C40.4536 86.5572 41.7965 88.7715 45.025 88.7715C48.1108 88.7715 50.0608 87.5643 50.0608 82.8679V50.9143H59.4572V82.9929C59.4572 92.7215 53.7429 97.15 45.425 97.15C42.4849 97.3108 39.5649 96.578 37.0489 95.0482C34.533 93.5183 32.5388 91.263 31.3286 88.5786L38.9786 83.9393Z" fill="black"/>
</g>
</svg>
